PathFileType	4	(X/Y/Z)	Patient4_TMGait_0pt4_03_left_15.trc.trc
DataRate	CameraRate	NumFrames	NumMarkers	Units	OrigDataRate	OrigDataStartFrame	OrigNumFrames
71.794871794872	71.794871794872	4	33	mm	71.794871794872	106	       141
Frame#	Time	Sacral			L.Shoulder			Chest			R.Shoulder			Neck			R.ASIS			L.ASIS			R.Thigh.Superior			R.Thigh.Lateral			R.Thigh.Inferior			R.Patella			L.Thigh.Superior			L.Thigh.Lateral			L.Thigh.Inferior			L.Patella			L.Shank.Superior			L.Shank.Lateral			L.Shank.Inferior			R.Shank.Superior			R.Shank.Lateral			R.Shank.Inferior			R.Heel			R.Midfoot.Superior			R.Midfoot.Lateral			R.Toe			L.Heel			L.Midfoot.Lateral			L.Midfoot.Superior			L.Toe			L.Elbow			L.Wrist			R.Elbow			R.Wrist			
		X1	Y1	Z1	X2	Y2	Z2	X3	Y3	Z3	X4	Y4	Z4	X5	Y5	Z5	X6	Y6	Z6	X7	Y7	Z7	X8	Y8	Z8	X9	Y9	Z9	X10	Y10	Z10	X11	Y11	Z11	X12	Y12	Z12	X13	Y13	Z13	X14	Y14	Z14	X15	Y15	Z15	X16	Y16	Z16	X17	Y17	Z17	X18	Y18	Z18	X19	Y19	Z19	X20	Y20	Z20	X21	Y21	Z21	X22	Y22	Z22	X23	Y23	Z23	X24	Y24	Z24	X25	Y25	Z25	X26	Y26	Z26	X27	Y27	Z27	X28	Y28	Z28	X29	Y29	Z29	X30	Y30	Z30	X31	Y31	Z31	X32	Y32	Z32	X33	Y33	Z33	

106	20.832500000000	848.563494670190	1010.327066116335	534.183910757860	1023.432416442848	1432.986629270200	339.244747017965	1139.720892572934	1363.213616580547	491.031157184709	1076.030485443549	1440.312165717178	671.588111360445	1022.449840406693	1497.170430498120	495.353795440547	1084.296133502191	940.453599654157	634.680952559201	1051.440371572186	967.761717752124	363.187864723040	1114.551637606661	737.222271999853	601.685021998560	1030.405760462909	630.507181219917	662.868472592985	1103.201827751884	576.246366157720	580.302137807798	1099.850452704153	487.787062414226	585.635736757283	1137.415070108180	788.428988323046	387.037706233782	1095.941079423744	662.931433384330	304.127313212653	1201.559359022374	602.852232119211	363.213109613958	1220.231780322290	518.855954407494	351.405311411042	1167.221791663628	447.322832676902	339.662122818855	1038.311956162747	375.295642649118	293.127113494677	1062.221284908735	243.350412026295	337.586504082423	1065.481889410711	400.789410887453	591.734079159695	988.476092912580	300.509901444065	650.797347455692	1024.254433128829	204.223325402336	586.273423780118	883.591591450796	43.964593453574	550.665115473708	1052.916952304776	96.299002965438	594.803173321202	963.498990564840	37.277493406177	629.792640650119	1172.256377405295	41.640952638412	628.127834422235	899.438151128763	129.922509667100	379.276051569863	960.117582989857	105.274687190895	292.748107424110	1060.635446899180	139.094020040238	310.212032109084	1161.475658736753	53.431271850301	268.610631320348	945.646767915158	1089.071364465263	224.798106054444	999.473321444029	835.907113699361	180.583249873948	1117.553059997857	1110.103004921489	822.483063951966	1343.300223162475	1002.937387208070	766.207499338639	
107	20.846428571429	847.389878815858	1011.274220059815	536.334631766208	1022.362225095242	1433.076024748953	340.200131242660	1139.810780151026	1362.782450337062	490.818258451802	1078.271275985676	1440.331801339762	671.952405203530	1022.986820541649	1497.270206484860	496.068240273580	1083.452965611700	940.103791233459	634.703320286705	1048.655945445156	968.168420264109	363.506217306570	1111.463668802198	736.535508143685	601.426435817569	1026.897878836990	630.476126660843	663.341246667711	1098.508435855863	575.637627426332	580.274534983849	1094.428626082936	487.497137096585	585.662320339767	1134.525912390894	789.791479067497	387.478243728127	1094.334700702027	664.435815466209	303.908495397506	1199.667821999231	604.894643941412	363.930849427523	1220.036232549215	522.435517311846	351.377458945379	1170.495882640908	450.092361459025	339.078321451993	1046.088135530862	370.861289325137	292.452631731163	1078.197827314559	240.032037503155	336.088715891884	1060.073222135268	400.626065933770	591.960685866713	983.104595061865	300.397954235273	651.158827222202	1018.674925525381	204.136940115080	586.445286760469	877.968201281006	43.919719545736	550.765961401168	1047.240862742460	96.213576157732	594.810009860200	957.867495501506	37.210844954974	629.858436377176	1166.618821809116	41.641142736444	628.165972591569	922.952884165052	116.132088111173	377.998264328814	984.618019725418	96.152401357566	290.908974108588	1082.976290754800	136.032987820315	308.075413492449	1188.890332906811	57.359444821215	265.267241061682	940.303868050445	1089.826320534668	226.710561912011	992.327690464244	836.425853741521	181.701804326268	1124.470899126044	1110.667263520785	822.030309554843	1353.032371808891	1012.484555204441	762.211635649136	
108	20.860357142857	846.249246149304	1012.121042452999	538.325397490719	1021.367150337436	1433.055570402470	340.941031935398	1139.893085220865	1362.236914156984	490.437279485556	1080.439507582163	1440.226948731801	672.111282327398	1023.519289761988	1497.271254959798	496.572876338956	1082.563909732982	939.713229978243	634.608745800593	1045.913103364236	968.396741484433	363.684103018313	1108.376726865316	735.828464672620	601.158296732172	1023.374773767650	630.424640755781	663.796036716763	1093.794911709542	575.011326058894	580.257599683380	1088.962987506278	487.210386401679	585.697832402079	1131.356979895967	790.690661763516	387.798460664666	1092.265960853188	665.548481393364	303.539457840444	1197.170520049507	606.389687462801	364.549042441575	1219.163042831971	525.626181764238	351.370000756341	1173.186083645758	452.646869801810	338.580444404016	1053.946371754625	366.418959380015	291.338392018920	1093.916560622477	237.212632893143	334.572809598237	1054.656741353162	400.461016183857	592.192696166269	977.729489282806	300.267922057989	651.529313195295	1013.083809206750	204.041998224840	586.617902146053	872.342426712498	43.864116681288	550.871075995070	1041.565038777808	96.122765717068	594.814652322507	952.234312084532	37.136791004610	629.914773168598	1160.981510221439	41.646694888209	628.201024168228	946.550586577005	103.482707749819	376.081845120285	1009.379327170563	87.958188750989	288.865748416167	1105.183746316362	133.684618856302	306.162594445267	1215.861942201892	61.983847175797	262.979990940927	935.394601065063	1090.402636381005	228.516952296781	985.782189424030	836.772211428786	182.871878210419	1131.026184828915	1110.970501103485	821.078940724917	1361.929107553009	1021.539697657351	757.888701250732	
109	20.874285714286	845.150535833572	1012.868209946632	540.126833339515	1020.454348747218	1432.940880918665	341.459639364254	1139.960600380941	1361.601240288488	489.898574486600	1082.494273921276	1440.015181383854	672.066585939347	1024.039974002187	1497.187533056281	496.867400682805	1081.641276187769	939.299030790230	634.415308489039	1043.251706539306	968.467479426046	363.724361382828	1105.315263472878	735.107290698256	600.891849986727	1019.839493302782	630.355912087811	664.221140530514	1089.079257550765	574.370499972756	580.254448815161	1083.478670619711	486.930540647988	585.741780073110	1127.987548749855	791.162619145801	388.005685168766	1089.792089424281	666.286010487578	303.041230768983	1194.180995867512	607.363932458267	365.011085415954	1217.692135416344	528.418381455015	351.396693427703	1175.312340144799	454.984883722620	338.208784408184	1061.815882928426	362.132723606335	289.811015662280	1109.109073373611	235.011040437390	333.112257364852	1049.247247930228	400.299080629170	592.420538511240	972.354650939742	300.128089354964	651.899199130671	1007.487691051872	203.941888547502	586.784806104179	866.712855713607	43.801366884260	550.974851310131	1035.890507189175	96.030736265474	594.819031098179	946.598827982039	37.058061391138	629.957968281178	1155.343866846684	41.660198788846	628.233040897783	969.746548886013	92.298610522552	373.570984410541	1033.976700928721	80.898269657833	286.708953020533	1126.891046528963	132.138267356009	304.580253264160	1241.967889270593	67.225478362205	261.961716677920	930.960455292162	1090.809253759652	230.183032363700	979.849428384607	836.942257039394	184.076713142208	1137.220445292214	1111.017690834207	819.622544508223	1370.010454364026	1029.999608762077	753.265178638811	
